# xmcd
# Copyright (C) 1995-1998 Ti Kan
#
# Track frame offsets:
#       150
#       16837
#       33094
#       48917
#       61957
#       80816
#       97958
#       114080
#       128354
#       140887
#       152981
#       172481
#       188419
#       198296
#       219253
#
# Disc length: 3137 seconds
#
# Revision: 14
# Processed by: cddbd v1.5.1PL0 Copyright (c) Steve Scherf et al.
# Submitted via: CD-Transfer v1.0
#
DISCID=c10c3f0f
DTITLE=Crosby and Nash - Euro Express 575
DYEAR=04
DGENRE=
TTITLE0=Love And War
TTITLE1=Mass Destruction
TTITLE2=The Gateway
TTITLE3=Man Of The Year
TTITLE4=Lost
TTITLE5=Time Marches On
TTITLE6=Easy Comes
TTITLE7=Lay It Down
TTITLE8=Triple Trouble
TTITLE9=California
TTITLE10=Zig Zag
TTITLE11=Not For All The Love In The World (Radio Edit)
TTITLE12=The Way It's Meant To Be
TTITLE13=Be The Rain (Live From Greendale-Edit)
TTITLE14=Lay Me Down
EXTD=
EXTT0=
EXTT1=
EXTT2=
EXTT3=
EXTT4=
EXTT5=
EXTT6=
EXTT7=
EXTT8=
EXTT9=
EXTT10=
EXTT11=
EXTT12=
EXTT13=
EXTT14=
PLAYORDER=
